<?xml version="1.0" standalone="no"?>
<!DOCTYPE svg PUBLIC "-//W3C//DTD SVG 20010904//EN"
 "http://www.w3.org/TR/2001/REC-SVG-20010904/DTD/svg10.dtd">
<svg version="1.0" xmlns="http://www.w3.org/2000/svg"
 width="1024.000000pt" height="1024.000000pt" viewBox="0 0 1024.000000 1024.000000"
 preserveAspectRatio="xMidYMid meet">
<metadata>
Created by potrace 1.11, written by Peter Selinger 2001-2013
</metadata>
<g transform="translate(0.000000,1024.000000) scale(0.100000,-0.100000)"
fill="#000000" stroke="none">
<path d="M2959 10236 c-2 -3 -18 -7 -34 -10 -53 -10 -169 -73 -214 -118 -45
-45 -111 -138 -116 -167 -2 -9 -4 -17 -5 -18 -2 -2 -3 -6 -4 -10 -1 -5 -5 -17
-8 -28 -9 -28 -23 -114 -34 -213 -3 -29 -7 -61 -9 -70 -2 -10 -6 -45 -10 -77
-4 -33 -9 -67 -10 -76 -2 -9 -6 -40 -10 -70 -3 -30 -11 -83 -16 -119 -6 -36
-12 -85 -14 -110 -3 -25 -6 -54 -8 -65 -3 -11 -8 -45 -12 -75 -3 -30 -8 -66
-10 -80 -2 -14 -6 -45 -10 -70 -3 -25 -8 -61 -11 -80 -2 -19 -7 -55 -9 -80 -3
-25 -7 -56 -10 -70 -3 -14 -8 -49 -11 -79 -3 -30 -7 -63 -10 -74 -2 -11 -6
-45 -10 -76 -3 -31 -8 -65 -10 -76 -3 -11 -7 -42 -10 -70 -3 -27 -7 -61 -9
-75 -2 -14 -6 -54 -10 -90 -4 -36 -9 -68 -11 -71 -1 -3 -6 -28 -9 -55 -3 -27
-8 -62 -10 -79 -4 -33 -34 -262 -40 -310 -2 -16 -7 -55 -11 -85 -4 -30 -8 -64
-10 -75 -2 -11 -7 -40 -10 -65 -3 -25 -7 -56 -9 -70 -2 -14 -7 -45 -10 -70 -3
-25 -7 -61 -10 -80 -2 -19 -6 -51 -9 -70 -3 -19 -10 -72 -16 -117 -6 -46 -13
-97 -16 -115 -2 -18 -7 -51 -9 -74 -2 -22 -6 -54 -9 -70 -3 -16 -10 -67 -16
-114 -5 -47 -12 -96 -15 -110 -3 -13 -7 -49 -10 -80 -3 -31 -8 -67 -11 -80 -3
-14 -7 -47 -9 -75 -2 -27 -7 -61 -9 -74 -3 -12 -8 -44 -11 -70 -9 -80 -16
-135 -21 -161 -2 -14 -11 -79 -19 -145 -9 -66 -18 -131 -20 -145 -2 -14 -7
-47 -10 -75 -4 -27 -8 -61 -10 -75 -2 -14 -6 -47 -9 -75 -4 -27 -9 -63 -11
-80 -3 -16 -7 -44 -9 -61 -4 -32 -15 -113 -23 -169 -12 -82 -10 -213 4 -260
34 -117 108 -216 208 -280 69 -45 137 -66 224 -70 40 -2 75 -6 78 -9 3 -3 13
-1 22 4 10 5 23 5 30 1 7 -5 29 -5 50 -1 21 4 47 3 59 -1 12 -5 24 -4 27 1 3
6 15 6 29 0 13 -5 27 -6 30 -3 8 8 76 9 76 1 0 -4 14 -3 30 2 17 5 30 5 30 0
0 -5 13 -5 30 0 17 5 30 5 30 0 0 -5 13 -5 30 0 17 5 30 6 30 2 0 -4 29 -7 65
-7 36 0 65 3 65 7 0 4 13 3 29 -2 15 -4 34 -4 42 0 7 5 20 5 29 0 9 -5 22 -5
30 0 8 5 21 5 30 0 9 -5 22 -5 30 0 8 5 21 5 30 0 9 -5 22 -5 30 0 8 5 21 5
30 0 9 -5 22 -5 30 0 8 5 21 5 30 0 9 -5 22 -5 30 0 8 5 21 5 30 0 9 -5 22 -5
30 0 8 5 21 5 30 0 8 -4 22 -4 31 0 8 5 21 5 29 0 8 -5 21 -5 30 0 9 5 22 5
30 0 8 -5 21 -5 30 0 9 5 22 5 30 0 8 -5 21 -5 30 0 9 5 22 5 29 1 7 -5 29 -5
50 -1 21 4 47 3 59 -1 12 -5 24 -4 27 1 3 6 15 6 29 0 13 -5 27 -6 30 -3 8 8
76 9 76 1 0 -4 14 -3 30 2 17 5 30 5 30 0 0 -5 13 -5 30 0 17 5 30 6 30 2 0
-4 29 -7 65 -7 36 0 65 3 65 7 0 4 14 3 30 -2 17 -5 30 -5 30 0 0 5 12 5 28 1
15 -5 37 -5 49 0 13 5 25 4 28 -1 3 -6 15 -6 29 0 13 5 27 6 30 3 8 -8 196 -9
196 -1 0 8 39 -2 45 -13 3 -4 -13 -84 -35 -176 -23 -92 -43 -177 -44 -188 -2
-11 -6 -27 -9 -35 -3 -8 -19 -76 -36 -150 -17 -74 -33 -144 -36 -155 -9 -36
-46 -190 -50 -210 -3 -11 -7 -30 -10 -42 -3 -13 -7 -31 -9 -40 -3 -10 -14 -58
-26 -108 -12 -49 -23 -98 -26 -107 -2 -10 -6 -28 -9 -40 -3 -13 -12 -52 -21
-87 -22 -88 -24 -100 -31 -143 -3 -21 -9 -38 -13 -38 -5 0 -7 -8 -6 -17 2 -10
-3 -38 -10 -63 -10 -34 -84 -348 -98 -415 -1 -5 -5 -19 -9 -30 -3 -11 -9 -33
-12 -50 -8 -39 -13 -60 -15 -60 -1 0 -3 -9 -5 -20 -1 -11 -12 -60 -24 -109
-12 -50 -23 -97 -25 -105 -1 -9 -6 -27 -9 -41 -13 -50 -47 -196 -52 -218 -2
-13 -7 -32 -10 -42 -6 -17 -9 -30 -20 -82 -2 -13 -7 -35 -11 -50 -3 -15 -5
-29 -4 -30 1 -2 -4 -16 -10 -33 -7 -16 -13 -39 -15 -50 -4 -25 -48 -214 -74
-320 -11 -43 -18 -81 -16 -84 3 -2 1 -9 -4 -15 -5 -6 -12 -28 -15 -50 -4 -21
-8 -42 -11 -46 -2 -3 -6 -20 -9 -36 -3 -16 -20 -85 -37 -154 -17 -69 -33 -136
-35 -149 -3 -13 -11 -51 -19 -84 -8 -33 -12 -64 -9 -68 2 -4 0 -10 -6 -14 -6
-4 -8 -10 -5 -15 3 -5 8 -36 10 -69 4 -53 38 -168 54 -181 3 -3 12 -17 20 -32
20 -39 99 -115 149 -145 103 -61 244 -86 352 -62 148 33 269 134 360 304 11
22 25 47 30 55 53 86 90 152 90 160 0 6 4 10 9 10 5 0 13 9 16 21 6 18 35 69
84 149 9 14 14 28 13 33 -1 4 2 7 8 7 5 0 10 4 10 9 0 5 13 31 29 58 80 131
351 605 351 613 0 6 5 10 10 10 6 0 10 4 10 9 0 5 27 55 60 111 33 56 60 103
60 105 0 2 18 33 40 69 22 36 40 70 40 76 0 5 5 10 10 10 6 0 10 5 10 10 0 6
16 36 35 66 19 30 35 56 35 58 0 6 83 150 89 156 3 3 15 23 26 45 11 22 23 42
26 45 3 3 8 10 10 15 4 9 55 100 111 195 11 19 30 53 41 75 12 22 25 42 28 45
3 3 24 39 48 80 23 41 51 89 61 105 11 17 23 37 26 45 15 33 89 155 96 158 5
2 6 7 3 12 -3 5 1 14 8 22 7 7 18 24 25 38 7 14 22 41 33 60 82 136 129 220
129 229 0 6 4 11 8 11 4 0 21 26 37 57 16 32 31 60 35 63 3 3 32 52 64 110 32
58 61 107 65 110 3 3 15 23 27 45 11 22 60 107 107 189 48 82 87 153 87 158 0
4 4 8 9 8 5 0 11 8 14 18 4 9 17 35 29 57 55 95 140 241 148 255 5 8 60 103
122 210 62 107 121 209 131 225 9 17 23 41 29 55 7 14 15 27 18 30 7 7 29 42
37 60 4 8 24 43 45 78 21 34 38 65 38 67 0 3 18 34 40 69 22 35 40 68 40 75 0
6 5 11 10 11 6 0 10 4 10 9 0 9 299 531 310 541 3 3 13 21 22 40 18 38 50 92
58 100 3 3 12 19 21 35 8 17 62 110 119 209 134 233 143 257 143 376 0 110 -2
124 -39 208 -7 17 -13 33 -11 35 1 1 -10 16 -25 32 -16 16 -28 33 -28 38 0 4
-19 26 -42 48 -40 37 -184 115 -218 118 -177 13 -179 13 -257 11 -34 -1 -65 0
-70 3 -5 3 -15 2 -22 -2 -7 -5 -28 -5 -47 -1 -19 4 -34 5 -34 1 0 -5 -19 -5
-42 -2 -24 3 -63 4 -88 1 -25 -3 -60 -2 -77 1 -19 4 -33 3 -33 -3 0 -5 -5 -6
-10 -3 -13 8 -216 9 -229 1 -5 -4 -12 -2 -15 3 -3 5 -21 6 -39 2 -18 -5 -41
-5 -52 -1 -11 4 -31 4 -45 0 -14 -4 -35 -4 -46 0 -11 5 -27 5 -34 0 -7 -4 -25
-4 -40 0 -15 4 -33 4 -39 0 -7 -4 -30 -4 -52 0 -22 4 -41 4 -44 0 -2 -4 -21
-4 -42 -1 -21 4 -55 4 -76 0 -20 -3 -39 -3 -42 1 -3 4 -22 4 -42 1 -21 -4 -52
-4 -70 0 -17 3 -37 3 -43 -1 -7 -4 -27 -4 -46 0 -19 4 -34 5 -34 1 0 -5 -19
-5 -42 -2 -24 3 -63 4 -88 1 -25 -3 -60 -2 -77 1 -19 4 -33 3 -33 -3 0 -5 -5
-6 -10 -3 -6 3 -74 6 -153 5 -78 0 -153 0 -167 0 -14 1 -32 1 -40 1 -68 -5
-105 3 -95 20 5 8 59 202 70 254 9 39 67 260 72 275 3 8 7 20 8 25 2 6 13 46
24 90 33 121 33 121 46 175 2 8 4 15 5 15 1 0 3 7 5 15 7 33 24 99 49 190 15
52 28 102 30 110 6 21 46 172 51 190 10 33 26 96 31 120 3 14 12 49 21 79 8
29 16 59 17 65 1 6 5 17 10 24 4 7 6 16 3 19 -3 3 -1 17 5 32 5 14 11 33 13
41 2 8 18 67 35 130 30 112 37 139 45 170 2 8 4 15 5 15 1 0 3 7 5 15 7 33 24
97 33 128 6 17 8 32 5 32 -3 0 0 7 7 15 7 9 10 18 7 22 -4 3 -2 12 4 20 6 7 8
13 4 13 -4 0 -2 7 5 15 7 8 10 15 7 15 -3 0 5 39 19 88 14 48 27 98 30 112 3
14 8 34 11 45 14 41 15 52 18 140 2 98 -16 170 -68 256 -51 87 -147 165 -252
205 -48 18 -101 19 -1501 22 -798 1 -1453 0 -1455 -2z"/>
</g>
</svg>
